<?xml version="1.0" encoding="UTF-8" standalone="no"?>
<!-- Created with Inkscape (http://www.inkscape.org/) -->

<svg
   width="250"
   height="100"
   viewBox="0 0 1280 720"
   version="1.1"
   id="svg1"
   xml:space="preserve"
   xmlns="http://www.w3.org/2000/svg"
   xmlns:svg="http://www.w3.org/2000/svg"><defs
     id="defs1" /><g
     id="layer1"><path
       d="m 145,365.92187 a 119.39224,198.84502 45 0 1 56.21289,-76.49609 119.39224,198.84502 45 0 1 76.49219,-56.21094 H 157.7207 c -7.0473,0 -12.7207,5.67341 -12.7207,12.72071 z"
       style="display:inline;opacity:1;fill:#800000;fill-opacity:1;stroke-width:0.99005"
       id="path9" /><path
       d="m 426.27148,382.19336 a 119.39224,198.84502 45 0 1 -56.21289,76.07812 119.39224,198.84502 45 0 1 -76.49609,56.21289 h 119.98828 c 7.0473,0 12.7207,-5.6734 12.7207,-12.7207 z"
       style="display:inline;opacity:1;fill:#800000;fill-opacity:1;stroke-width:0.99005"
       id="path8" /><path
       id="path10"
       style="display:inline;opacity:1;fill:#800000;fill-opacity:1;stroke-width:0.803935"
       d="m 335.51488,235.95373 a 95.983566,179.84715 45 0 0 -67.38476,31.97071 c -10.64049,7.92937 -21.3691,16.68772 -31.91016,26.20898 -20.8821,18.89576 -38.61157,38.45476 -52.35937,56.90625 a 95.983566,179.84715 45 0 0 -29.14649,53.98437 c -3.15006,12.05091 -2.35971,21.73497 3.125,27.79688 12.85839,13.96757 57.76087,6.76503 95.07617,-10.81641 37.31533,-17.58142 67.04378,-45.54185 72.04493,-48.99609 -12.35466,-0.70206 -14.20303,-0.53174 -20.78711,-2.89648 -5.7896,-2.07941 -10.34711,-5.17838 -15.69141,-9.34376 11.79421,-6.36285 29.98714,-13.14483 41.59766,-16.25585 4.11298,-1.10207 13.14024,-3.00706 22.66015,-2.80274 9.51992,0.20433 19.53328,2.51868 25.6211,9.85938 15.34116,16.95376 -6.57141,56.88397 -79.61328,123.20507 -16.7333,15.11158 -34.89265,27.90379 -52.07032,37.94922 a 95.983566,179.84715 45 0 0 70.32227,-36.42382 c 6.31445,-5.10046 12.62043,-10.46035 18.85937,-16.09571 61.90678,-56.01809 96.99885,-118.11019 78.38086,-138.6875 -12.85837,-13.96755 -57.76087,-6.76501 -95.07617,10.81641 -37.31531,17.58142 -67.04379,45.54187 -72.04492,48.99609 12.35466,0.70206 14.20303,0.53173 20.78711,2.89649 5.78959,2.07939 10.34712,5.17837 15.6914,9.34375 -11.79417,6.36297 -29.98885,13.14476 -41.5996,16.25586 -4.113,1.10205 -13.1383,3.00705 -22.65821,2.80273 -9.51992,-0.20433 -19.53329,-2.51868 -25.62109,-9.85938 -15.34118,-16.95376 6.56944,-56.88397 79.61133,-123.20507 20.06872,-18.12375 42.1891,-32.95541 62.18554,-43.60938 z" /><path
       id="path73"
       d="M 271.04641,391.34464 C 194.32324,468.06781 127.73098,522.76188 116.70456,511.73548 105.67813,500.70909 159.93334,432.90219 236.65653,356.179 c 76.7232,-76.72319 146.86086,-133.30917 157.88725,-122.28274 11.0264,11.02642 -46.77419,80.7252 -123.49737,157.44838 z"
       style="display:none;opacity:1;fill:#800000" /><rect
       style="display:none;fill:#000000;fill-opacity:1;stroke-width:1.27345"
       id="rect92"
       width="104.72447"
       height="104.72447"
       x="196.09343"
       y="323.02634"
       ry="16.199249" /><text
       xml:space="preserve"
       style="font-style:normal;font-variant:normal;font-weight:normal;font-stretch:normal;font-size:96px;font-family:'Jones*';-inkscape-font-specification:'Jones*, Normal';font-variant-ligatures:normal;font-variant-caps:normal;font-variant-numeric:normal;font-variant-east-asian:normal;letter-spacing:20px;fill:#000000;fill-opacity:1"
       x="621.73169"
       y="375.73666"
       id="text107"><tspan
         id="tspan107"
         x="621.73169"
         y="375.73666">SATUS</tspan></text><text
       xml:space="preserve"
       style="font-style:normal;font-variant:normal;font-weight:normal;font-stretch:normal;font-size:48px;font-family:'Jones*';-inkscape-font-specification:'Jones*, Normal';font-variant-ligatures:normal;font-variant-caps:normal;font-variant-numeric:normal;font-variant-east-asian:normal;letter-spacing:20px;fill:#000000"
       x="514.12518"
       y="468.13095"
       id="text2"><tspan
         id="tspan2"
         x="514.12518"
         y="468.13095">TECHNOLOGIES</tspan></text></g></svg>
